<svg width="139" height="90" viewBox="0 0 139 90" fill="none" xmlns="http://www.w3.org/2000/svg">
<mask id="path-1-inside-1_530_11" fill="white">
<path d="M129.919 85.6891C133.626 86.6826 137.474 84.4842 138.092 80.696C139.429 72.5038 139.291 64.119 137.665 55.9412C135.585 45.4856 131.128 35.6486 124.638 27.1911C118.148 18.7336 109.8 11.8823 100.239 7.16734C90.678 2.45235 80.1604 -1.48277e-07 69.5 0C58.8396 1.48277e-07 48.322 2.45235 38.7609 7.16735C29.1999 11.8823 20.8516 18.7336 14.3619 27.1911C7.87228 35.6486 3.41517 45.4856 1.33542 55.9412C-0.291246 64.119 -0.429454 72.5038 0.907718 80.696C1.52605 84.4842 5.37375 86.6826 9.08134 85.6891C12.7889 84.6957 14.9429 80.8848 14.4194 77.0823C13.5777 70.9674 13.7578 64.7386 14.9683 58.653C16.6321 50.2885 20.1978 42.4189 25.3896 35.6529C30.5813 28.8869 37.2599 23.4059 44.9087 19.6339C52.5576 15.8619 60.9716 13.9 69.5 13.9C78.0284 13.9 86.4424 15.8619 94.0913 19.6339C101.74 23.4059 108.419 28.8869 113.61 35.6529C118.802 42.4189 122.368 50.2885 124.032 58.653C125.242 64.7386 125.422 70.9674 124.581 77.0823C124.057 80.8848 126.211 84.6957 129.919 85.6891Z"/>
</mask>
<path d="M129.919 85.6891C133.626 86.6826 137.474 84.4842 138.092 80.696C139.429 72.5038 139.291 64.119 137.665 55.9412C135.585 45.4856 131.128 35.6486 124.638 27.1911C118.148 18.7336 109.8 11.8823 100.239 7.16734C90.678 2.45235 80.1604 -1.48277e-07 69.5 0C58.8396 1.48277e-07 48.322 2.45235 38.7609 7.16735C29.1999 11.8823 20.8516 18.7336 14.3619 27.1911C7.87228 35.6486 3.41517 45.4856 1.33542 55.9412C-0.291246 64.119 -0.429454 72.5038 0.907718 80.696C1.52605 84.4842 5.37375 86.6826 9.08134 85.6891C12.7889 84.6957 14.9429 80.8848 14.4194 77.0823C13.5777 70.9674 13.7578 64.7386 14.9683 58.653C16.6321 50.2885 20.1978 42.4189 25.3896 35.6529C30.5813 28.8869 37.2599 23.4059 44.9087 19.6339C52.5576 15.8619 60.9716 13.9 69.5 13.9C78.0284 13.9 86.4424 15.8619 94.0913 19.6339C101.74 23.4059 108.419 28.8869 113.61 35.6529C118.802 42.4189 122.368 50.2885 124.032 58.653C125.242 64.7386 125.422 70.9674 124.581 77.0823C124.057 80.8848 126.211 84.6957 129.919 85.6891Z" stroke="#EFF2F5" stroke-width="24" stroke-linecap="round" mask="url(#path-1-inside-1_530_11)"/>
</svg>
